<svg width="22" height="22" viewBox="0 0 22 22" fill="none" xmlns="http://www.w3.org/2000/svg">
<path d="M2.75 8.8C2.76178 8.24018 2.80707 7.12912 2.89223 6.77148C3.32709 4.76012 4.80378 3.48216 6.91464 3.3H15.0863C17.179 3.4917 18.6738 4.77824 19.1087 6.77148C19.1929 7.11958 19.2382 8.23923 19.25 8.8H2.75Z" fill="white"/>
<path d="M14.713 16.4248C14.2964 16.4162 13.9613 16.0882 13.9613 15.6911C13.9522 15.294 14.2873 14.9668 14.7039 14.9582H14.713C15.1386 14.9582 15.4827 15.2862 15.4827 15.6911C15.4827 16.0968 15.1386 16.4248 14.713 16.4248ZM11.0181 13.2482C10.6015 13.2663 10.2574 12.9547 10.2393 12.5585C10.2393 12.1614 10.5653 11.8334 10.9819 11.8152C11.3894 11.8152 11.7245 12.1182 11.7335 12.5058C11.7516 12.9037 11.4256 13.2318 11.0181 13.2482ZM11.0181 16.3817C10.6015 16.3998 10.2574 16.0882 10.2393 15.6911C10.2393 15.294 10.5653 14.9668 10.9819 14.9487C11.3894 14.9487 11.7245 15.2517 11.7335 15.6401C11.7516 16.0372 11.4256 16.3653 11.0181 16.3817ZM7.2961 13.2482C6.87953 13.2663 6.5354 12.9547 6.51729 12.5585C6.51729 12.1614 6.8433 11.8334 7.25988 11.8152C7.6674 11.8152 8.00247 12.1182 8.01153 12.5058C8.02964 12.9037 7.70362 13.2318 7.2961 13.2482ZM7.28705 16.3817C6.87047 16.3998 6.52634 16.0882 6.50823 15.6911C6.50823 15.294 6.83425 14.9668 7.25082 14.9487C7.65834 14.9487 7.99341 15.2517 8.00247 15.6401C8.02058 16.0372 7.69457 16.3653 7.28705 16.3817ZM13.9704 12.5498C13.9704 12.1527 14.2964 11.8334 14.713 11.8247C15.1205 11.8247 15.4465 12.1346 15.4646 12.5153C15.4737 12.9124 15.1476 13.2404 14.7401 13.2482C14.3235 13.2568 13.9794 12.9547 13.9704 12.5585V12.5498ZM2.75 8.8V15.3717C2.75 18.0995 4.57931 19.8 7.45006 19.8H14.5409C17.4388 19.8 19.25 18.134 19.25 15.4243V8.8H2.75Z" fill="#1A1926"/>
<path opacity="0.3" d="M2.75 8.8C2.76178 8.24018 2.80707 7.12912 2.89223 6.77148C3.32709 4.76012 4.80378 3.48216 6.91464 3.3H15.0863C17.179 3.4917 18.6738 4.77824 19.1087 6.77148C19.1929 7.11958 19.2382 8.23923 19.25 8.8H2.75Z" fill="#1A1926"/>
<path d="M7.59942 6.2392C7.98195 6.2392 8.26884 5.94968 8.26884 5.5616V2.87848C8.26884 2.4904 7.98195 2.2 7.59942 2.2C7.2169 2.2 6.93 2.4904 6.93 2.87848V5.5616C6.93 5.94968 7.2169 6.2392 7.59942 6.2392Z" fill="#1A1926"/>
<path d="M14.3974 6.2392C14.7712 6.2392 15.0668 5.94968 15.0668 5.5616V2.87848C15.0668 2.4904 14.7712 2.2 14.3974 2.2C14.0149 2.2 13.728 2.4904 13.728 2.87848V5.5616C13.728 5.94968 14.0149 6.2392 14.3974 6.2392Z" fill="#1A1926"/>
</svg>
