<svg width="22" height="22" viewBox="0 0 22 22" fill="none" xmlns="http://www.w3.org/2000/svg">
<path d="M7.41387 12.2898C8.64772 12.29 9.64727 13.2984 9.64727 14.5427V17.5476C9.64704 18.7909 8.64758 19.7994 7.41387 19.7996H4.43437C3.20052 19.7996 2.20023 18.791 2.2 17.5476V14.5427C2.2 13.2983 3.20038 12.2898 4.43437 12.2898H7.41387ZM17.5662 12.2898C18.8002 12.2899 19.7996 13.2983 19.7996 14.5427V17.5476C19.7994 18.791 18.8 19.7995 17.5662 19.7996H14.5867C13.3529 19.7996 12.3526 18.791 12.3523 17.5476V14.5427C12.3523 13.2983 13.3527 12.2898 14.5867 12.2898H17.5662ZM7.41387 2.19995C8.64772 2.20012 9.64727 3.20857 9.64727 4.45288V7.45776C9.64714 8.70197 8.64764 9.71052 7.41387 9.71069H4.43437C3.20045 9.71069 2.20012 8.70208 2.2 7.45776V4.45288C2.2 3.20846 3.20038 2.19995 4.43437 2.19995H7.41387ZM17.5662 2.19995C18.8002 2.20001 19.7996 3.2085 19.7996 4.45288V7.45776C19.7995 8.70204 18.8001 9.71063 17.5662 9.71069H14.5867C13.3528 9.71069 12.3525 8.70208 12.3523 7.45776V4.45288C12.3523 3.20846 13.3527 2.19995 14.5867 2.19995H17.5662Z" fill="white"/>
<path opacity="0.4" d="M14.5864 2.19995H17.5661C18.8001 2.19995 19.8 3.2083 19.8 4.45272V7.45753C19.8 8.70195 18.8001 9.7103 17.5661 9.7103H14.5864C13.3525 9.7103 12.3525 8.70195 12.3525 7.45753V4.45272C12.3525 3.2083 13.3525 2.19995 14.5864 2.19995Z" fill="#1A1926"/>
<path d="M7.41355 12.2896C8.64755 12.2896 9.64745 13.298 9.64745 14.5424V17.5472C9.64745 18.7908 8.64755 19.7999 7.41355 19.7999H4.4339C3.1999 19.7999 2.2 18.7908 2.2 17.5472V14.5424C2.2 13.298 3.1999 12.2896 4.4339 12.2896H7.41355ZM17.5661 12.2896C18.8001 12.2896 19.8 13.298 19.8 14.5424V17.5472C19.8 18.7908 18.8001 19.7999 17.5661 19.7999H14.5864C13.3525 19.7999 12.3525 18.7908 12.3525 17.5472V14.5424C12.3525 13.298 13.3525 12.2896 14.5864 12.2896H17.5661ZM7.41355 2.19995C8.64755 2.19995 9.64745 3.2083 9.64745 4.45272V7.45753C9.64745 8.70195 8.64755 9.7103 7.41355 9.7103H4.4339C3.1999 9.7103 2.2 8.70195 2.2 7.45753V4.45272C2.2 3.2083 3.1999 2.19995 4.4339 2.19995H7.41355Z" fill="#1A1926"/>
</svg>
