<svg width="22" height="22" viewBox="0 0 22 22" fill="none" xmlns="http://www.w3.org/2000/svg">
<path d="M7.41387 12.2898C8.64772 12.29 9.64727 13.2985 9.64727 14.5428V17.5477C9.64704 18.7909 8.64758 19.7994 7.41387 19.7996H4.43438C3.20052 19.7996 2.20023 18.791 2.2 17.5477V14.5428C2.2 13.2984 3.20038 12.2898 4.43438 12.2898H7.41387ZM17.5662 12.2898C18.8002 12.2899 19.7996 13.2984 19.7996 14.5428V17.5477C19.7994 18.791 18.8 19.7995 17.5662 19.7996H14.5867C13.3529 19.7996 12.3526 18.791 12.3523 17.5477V14.5428C12.3523 13.2984 13.3527 12.2898 14.5867 12.2898H17.5662ZM7.41387 2.2C8.64772 2.20017 9.64727 3.20861 9.64727 4.45293V7.45781C9.64714 8.70201 8.64764 9.71057 7.41387 9.71074H4.43438C3.20046 9.71074 2.20012 8.70212 2.2 7.45781V4.45293C2.2 3.20851 3.20038 2.2 4.43438 2.2H7.41387ZM17.5662 2.2C18.8002 2.20006 19.7996 3.20855 19.7996 4.45293V7.45781C19.7995 8.70208 18.8001 9.71068 17.5662 9.71074H14.5867C13.3528 9.71074 12.3525 8.70212 12.3523 7.45781V4.45293C12.3523 3.20851 13.3527 2.2 14.5867 2.2H17.5662Z" fill="white"/>
<path opacity="0.5" d="M14.5864 2.2H17.5661C18.8001 2.2 19.8 3.20835 19.8 4.45276V7.45758C19.8 8.702 18.8001 9.71035 17.5661 9.71035H14.5864C13.3525 9.71035 12.3525 8.702 12.3525 7.45758V4.45276C12.3525 3.20835 13.3525 2.2 14.5864 2.2Z" fill="#2D99FF"/>
<path d="M7.41355 12.2896C8.64755 12.2896 9.64745 13.298 9.64745 14.5424V17.5472C9.64745 18.7908 8.64755 19.8 7.41355 19.8H4.4339C3.19991 19.8 2.2 18.7908 2.2 17.5472V14.5424C2.2 13.298 3.19991 12.2896 4.4339 12.2896H7.41355ZM17.5661 12.2896C18.8001 12.2896 19.8 13.298 19.8 14.5424V17.5472C19.8 18.7908 18.8001 19.8 17.5661 19.8H14.5864C13.3525 19.8 12.3525 18.7908 12.3525 17.5472V14.5424C12.3525 13.298 13.3525 12.2896 14.5864 12.2896H17.5661ZM7.41355 2.2C8.64755 2.2 9.64745 3.20835 9.64745 4.45276V7.45758C9.64745 8.702 8.64755 9.71035 7.41355 9.71035H4.4339C3.19991 9.71035 2.2 8.702 2.2 7.45758V4.45276C2.2 3.20835 3.19991 2.2 4.4339 2.2H7.41355Z" fill="#2D99FF"/>
</svg>
