<svg width="22" height="22" viewBox="0 0 22 22" fill="none" xmlns="http://www.w3.org/2000/svg">
<path d="M14.9082 2.2002C17.6264 2.20024 19.1396 3.76636 19.1396 6.4502V15.541C19.1396 18.2688 17.6264 19.7998 14.9082 19.7998H7.5332C4.85807 19.7998 3.29989 18.2689 3.2998 15.541V6.4502C3.29988 3.76632 4.85807 2.2002 7.5332 2.2002H14.9082Z" fill="white"/>
<path opacity="0.25" d="M14.9081 2.20001H7.5328C4.8576 2.20001 3.3 3.76641 3.3 6.45041V15.5408C3.3 18.2688 4.8576 19.8 7.5328 19.8H14.9081C17.6264 19.8 19.14 18.2688 19.14 15.5408V6.45041C19.14 3.76641 17.6264 2.20001 14.9081 2.20001Z" fill="#1A1926"/>
<path d="M7.77038 14.2912H14.6696C15.0207 14.3264 15.2856 14.6256 15.2856 14.9864C15.2856 15.3375 15.0207 15.6376 14.6696 15.6728H7.77038C7.50638 15.708 7.25118 15.576 7.11038 15.356C6.96958 15.1272 6.96958 14.8368 7.11038 14.6168C7.25118 14.388 7.50638 14.2648 7.77038 14.2912ZM14.6696 10.2775C15.048 10.2775 15.356 10.5864 15.356 10.9648C15.356 11.3432 15.048 11.6512 14.6696 11.6512H7.77038C7.3911 11.6512 7.08398 11.3432 7.08398 10.9648C7.08398 10.5864 7.3911 10.2775 7.77038 10.2775H14.6696ZM10.4007 6.29199C10.78 6.29199 11.088 6.59999 11.088 6.97751C11.088 7.36559 10.78 7.67359 10.4007 7.67359H7.77038C7.3911 7.67359 7.08398 7.36559 7.08398 6.98719C7.08398 6.60879 7.3911 6.30079 7.77038 6.30079V6.29199H10.4007Z" fill="#1A1926"/>
</svg>
