<svg width="22" height="22" viewBox="0 0 22 22" fill="none" xmlns="http://www.w3.org/2000/svg">
<path d="M14.8193 2.2002C17.8023 2.20026 19.7996 4.29426 19.7998 7.40918V14.5996C19.7996 17.7057 17.8023 19.7997 14.8193 19.7998H7.18945C4.20647 19.7997 2.20037 17.7057 2.2002 14.5996V7.40918C2.20038 4.29426 4.20647 2.20026 7.18945 2.2002H14.8193Z" fill="white"/>
<path opacity="0.25" d="M14.8192 2.20001H7.1896C4.2064 2.20001 2.2 4.29441 2.2 7.40961V14.5992C2.2 17.7056 4.2064 19.8 7.1896 19.8H14.8192C17.8024 19.8 19.8 17.7056 19.8 14.5992V7.40961C19.8 4.29441 17.8024 2.20001 14.8192 2.20001Z" fill="#1A1926"/>
<path d="M9.95554 13.8583C9.75842 13.8583 9.5613 13.7835 9.41082 13.6331L7.32258 11.5448C7.02162 11.2439 7.02162 10.7563 7.32258 10.4563C7.62354 10.1553 8.11018 10.1544 8.41114 10.4554L9.95554 11.9998L13.5882 8.36714C13.8891 8.06618 14.3758 8.06618 14.6767 8.36714C14.9777 8.6681 14.9777 9.15562 14.6767 9.45658L10.5003 13.6331C10.3498 13.7835 10.1527 13.8583 9.95554 13.8583Z" fill="#1A1926"/>
</svg>
